<?xml version="1.0" encoding="UTF-8" standalone="no"?>
<!-- Created with Inkscape (http://www.inkscape.org/) -->

<svg
   width="98.880096mm"
   height="33.006886mm"
   viewBox="0 0 98.880097 33.006886"
   version="1.1"
   id="svg1"
   xml:space="preserve"
   inkscape:version="1.4.3 (0d15f75, 2025-12-25)"
   sodipodi:docname="logo.svg"
   xmlns:inkscape="http://www.inkscape.org/namespaces/inkscape"
   xmlns:sodipodi="http://sodipodi.sourceforge.net/DTD/sodipodi-0.dtd"
   xmlns="http://www.w3.org/2000/svg"
   xmlns:svg="http://www.w3.org/2000/svg"><sodipodi:namedview
     id="namedview1"
     pagecolor="#ffffff"
     bordercolor="#999999"
     borderopacity="1"
     inkscape:showpageshadow="2"
     inkscape:pageopacity="0"
     inkscape:pagecheckerboard="0"
     inkscape:deskcolor="#d1d1d1"
     inkscape:document-units="mm"
     inkscape:zoom="2.8284272"
     inkscape:cx="282.66593"
     inkscape:cy="470.04922"
     inkscape:window-width="2560"
     inkscape:window-height="1351"
     inkscape:window-x="1341"
     inkscape:window-y="280"
     inkscape:window-maximized="1"
     inkscape:current-layer="layer1"
     showgrid="false"><inkscape:page
       x="-3.2259505e-21"
       y="0"
       width="98.880104"
       height="33.006886"
       id="page2"
       margin="0"
       bleed="0" /></sodipodi:namedview><defs
     id="defs1" /><g
     inkscape:groupmode="layer"
     id="layer2"
     inkscape:label="guide"
     style="display:none"
     sodipodi:insensitive="true"
     transform="translate(-35.08375,-109.97393)"><path
       style="display:inline;opacity:0.596774;fill:#ff81ac;fill-opacity:1;stroke:none;stroke-width:1.85208;stroke-dasharray:none;stroke-opacity:1"
       d="m 63.886719,116.42769 -1.027845,1.93193 -0.367601,0.68634 1.190625,0.39687 1.405599,-0.77721 -0.529167,-2.61106 z"
       id="path17"
       inkscape:label="stem top edge hidden"
       sodipodi:nodetypes="ccccccc" /><g
       id="g15"
       style="display:inline;opacity:1"
       inkscape:label="stem hidden"><path
         style="baseline-shift:baseline;display:inline;overflow:visible;vector-effect:none;fill-opacity:0;enable-background:accumulate;stop-color:#000000;stop-opacity:1"
         d="m 64.062237,117.3097 c -4.719402,0.94057 -10.149751,-2.68462 -16.007291,-0.59533 -5.85754,2.0893 -7.209895,8.02634 -7.209895,8.02634"
         id="path14" /><path
         style="baseline-shift:baseline;display:inline;overflow:visible;vector-effect:none;fill:#ff0000;enable-background:accumulate;stop-color:#000000;stop-opacity:1"
         d="m 52.375,115.1582 c -1.491275,-0.0322 -3.039702,0.14423 -4.623047,0.70899 -6.324187,2.25574 -7.783203,8.67383 -7.783203,8.67383 l 1.753906,0.40039 c 0,0 1.243873,-5.45606 6.634766,-7.37891 2.69085,-0.95978 5.311648,-0.61808 7.955078,-0.0977 2.64343,0.52043 5.283953,1.25308 7.925781,0.72657 l -0.351562,-1.76368 c -2.077574,0.41406 -4.512536,-0.1938 -7.228516,-0.72851 -1.35799,-0.26735 -2.791928,-0.50878 -4.283203,-0.54102 z"
         id="path15" /></g><path
       style="display:inline;opacity:0.596774;fill:#ff81ac;fill-opacity:1;stroke:none;stroke-width:1.85208;stroke-dasharray:none;stroke-opacity:1"
       d="m 39.968749,124.54102 2.246255,-1.0165 1.037556,0.33402 -0.643116,1.49086 -2.759559,0.0935 z"
       id="path13"
       inkscape:label="stem bottom edge hidden"
       sodipodi:nodetypes="cccccc" /></g><g
     inkscape:label="Layer 1"
     inkscape:groupmode="layer"
     id="layer1"
     transform="translate(-35.08375,-109.97393)"><text
       xml:space="preserve"
       style="font-style:normal;font-variant:normal;font-weight:bold;font-stretch:normal;font-size:37.0417px;font-family:Redaction;-inkscape-font-specification:'Redaction, Bold';font-variant-ligatures:normal;font-variant-caps:normal;font-variant-numeric:normal;font-variant-east-asian:normal;writing-mode:lr-tb;direction:ltr;fill:#537d5d;fill-opacity:1;stroke-width:0.628999"
       x="69.585419"
       y="140.89062"
       id="text6"><tspan
         sodipodi:role="line"
         id="tspan6"
         style="font-style:normal;font-variant:normal;font-weight:bold;font-stretch:normal;font-size:37.0417px;font-family:Redaction;-inkscape-font-specification:'Redaction, Bold';font-variant-ligatures:normal;font-variant-caps:normal;font-variant-numeric:normal;font-variant-east-asian:normal;fill:#537d5d;fill-opacity:1;stroke-width:0.629"
         x="69.585419"
         y="140.89062">SIT</tspan></text><path
       style="fill:none;fill-opacity:0;stroke:#537d5d;stroke-width:2.59292;stroke-dasharray:none;stroke-opacity:1"
       d="M 67.931767,141.68437 H 42.201041 c -4.214803,0 -5.820833,-3.71578 -5.820833,-7.4868 0,-3.77102 1.152739,-7.4868 5.820833,-7.4868 4.668094,0 10.811705,5e-5 15.808851,-0.0661 4.997146,-0.0661 9.921875,-6.80098 9.921875,-14.39514 -5.380861,3.18953 -15.892134,-2.96537 -23.018747,0.52916 -7.126613,3.49454 -8.532812,11.59821 -8.532812,11.59821"
       id="path18"
       sodipodi:nodetypes="czzzzczc"
       inkscape:export-filename="logo-icon.svg"
       inkscape:export-xdpi="96"
       inkscape:export-ydpi="96" /><g
       id="g20"
       style="display:inline;opacity:1;fill:#ff6600"
       inkscape:label="stem"><path
         style="baseline-shift:baseline;display:inline;overflow:visible;vector-effect:none;fill:#ff6600;fill-opacity:0;enable-background:accumulate;stop-color:#000000;stop-opacity:1"
         d="m 64.062237,117.3097 c -4.719402,0.94057 -10.149751,-2.68462 -16.007291,-0.59533 -5.85754,2.0893 -7.209895,8.02634 -7.209895,8.02634"
         id="path19" /><path
         style="baseline-shift:baseline;display:inline;overflow:visible;vector-effect:none;fill:#537d5d;fill-opacity:1;enable-background:accumulate;stop-color:#000000;stop-opacity:1"
         d="m 52.453644,115.53238 c -1.491275,-0.0322 -3.039702,0.14423 -4.623047,0.70899 -6.324187,2.25574 -7.031641,8.3815 -7.031641,8.3815 l 2.246254,-1.0165 c 0,0 1.268653,-4.17814 5.390856,-5.66969 2.686444,-0.97204 5.311648,-0.61808 7.955078,-0.0977 2.64343,0.52043 4.369082,0.62406 6.46773,0.52064 l 1.027845,-1.93193 c -2.077574,0.41406 -4.433892,0.18038 -7.149872,-0.35433 -1.35799,-0.26735 -2.791928,-0.50878 -4.283203,-0.54102 z"
         id="path20"
         sodipodi:nodetypes="csccscccscc" /></g><path
       style="fill:#6881ac;fill-opacity:1;stroke:#537d5d;stroke-width:1.85208;stroke-dasharray:none;stroke-opacity:1"
       d="m 40.785327,134.20936 h 23.9086 m -23.9086,-3.78332 h 23.9086 m -23.9086,7.56665 h 23.9086"
       id="path21"
       sodipodi:nodetypes="cccccc" /></g></svg>
